<svg width="16" height="16" viewBox="0 0 16 16" fill="none" xmlns="http://www.w3.org/2000/svg">
<g clip-path="url(#clip0_76_297)">
<path fill-rule="evenodd" clip-rule="evenodd" d="M8.00004 1.83334C4.59428 1.83334 1.83337 4.59425 1.83337 8C1.83337 11.4058 4.59428 14.1667 8.00004 14.1667C11.4058 14.1667 14.1667 11.4058 14.1667 8C14.1667 4.59425 11.4058 1.83334 8.00004 1.83334ZM0.833374 8C0.833374 4.04196 4.042 0.833336 8.00004 0.833336C11.9581 0.833336 15.1667 4.04196 15.1667 8C15.1667 11.958 11.9581 15.1667 8.00004 15.1667C4.042 15.1667 0.833374 11.958 0.833374 8ZM8.00003 3.49999C8.27617 3.49999 8.50003 3.72385 8.50003 3.99999V7.69097L10.8903 8.88611C11.1373 9.00961 11.2374 9.30994 11.1139 9.55693C10.9904 9.80392 10.6901 9.90403 10.4431 9.78054L7.77642 8.4472C7.60703 8.36251 7.50003 8.18938 7.50003 7.99999V3.99999C7.50003 3.72385 7.72389 3.49999 8.00003 3.49999Z" fill="#312826"/>
</g>
<defs>
<clipPath id="clip0_76_297">
<rect width="16" height="16" fill="white"/>
</clipPath>
</defs>
</svg>
