<svg width="16" height="16" viewBox="0 0 16 16" fill="none" xmlns="http://www.w3.org/2000/svg">
<path fill-rule="evenodd" clip-rule="evenodd" d="M0.879761 1.78956C0.96169 1.61298 1.13866 1.5 1.33332 1.5H14.6667C14.8613 1.5 15.0383 1.61298 15.1202 1.78956C15.2021 1.96614 15.1741 2.17422 15.0484 2.32286L9.83332 8.48974V14C9.83332 14.1733 9.74359 14.3342 9.59619 14.4253C9.44878 14.5164 9.26471 14.5247 9.10971 14.4472L6.44305 13.1139C6.27365 13.0292 6.16665 12.8561 6.16665 12.6667V8.48974L0.951535 2.32286C0.825836 2.17422 0.797832 1.96614 0.879761 1.78956ZM2.41097 2.5L7.04844 7.9838C7.12477 8.07407 7.16665 8.18846 7.16665 8.30667V12.3576L8.83332 13.191V8.30667C8.83332 8.18846 8.8752 8.07407 8.95153 7.9838L13.589 2.5H2.41097Z" fill="#312826"/>
</svg>
