<svg width="16" height="16" viewBox="0 0 16 16" fill="none" xmlns="http://www.w3.org/2000/svg">
<path fill-rule="evenodd" clip-rule="evenodd" d="M7.33333 2.5C4.66396 2.5 2.5 4.66396 2.5 7.33333C2.5 10.0027 4.66396 12.1667 7.33333 12.1667C8.64044 12.1667 9.82637 11.6478 10.6964 10.8048C10.7113 10.7844 10.728 10.7649 10.7465 10.7465C10.7649 10.728 10.7844 10.7113 10.8048 10.6964C11.6478 9.82637 12.1667 8.64044 12.1667 7.33333C12.1667 4.66396 10.0027 2.5 7.33333 2.5ZM11.7966 11.0895C12.6515 10.0747 13.1667 8.76415 13.1667 7.33333C13.1667 4.11167 10.555 1.5 7.33333 1.5C4.11167 1.5 1.5 4.11167 1.5 7.33333C1.5 10.555 4.11167 13.1667 7.33333 13.1667C8.76415 13.1667 10.0747 12.6515 11.0895 11.7966L13.6465 14.3536C13.8417 14.5488 14.1583 14.5488 14.3536 14.3536C14.5488 14.1583 14.5488 13.8417 14.3536 13.6465L11.7966 11.0895Z" fill="#312826"/>
</svg>
