<svg width="16" height="16" viewBox="0 0 16 16" fill="none" xmlns="http://www.w3.org/2000/svg">
<path fill-rule="evenodd" clip-rule="evenodd" d="M2.66663 1.5C2.94277 1.5 3.16663 1.72386 3.16663 2V6.66667C3.16663 6.94281 2.94277 7.16667 2.66663 7.16667C2.39048 7.16667 2.16663 6.94281 2.16663 6.66667V2C2.16663 1.72386 2.39048 1.5 2.66663 1.5ZM7.99997 1.5C8.27611 1.5 8.49997 1.72386 8.49997 2V4.83334H9.99997C10.2761 4.83334 10.5 5.0572 10.5 5.33334C10.5 5.60949 10.2761 5.83334 9.99997 5.83334H5.99997C5.72383 5.83334 5.49997 5.60949 5.49997 5.33334C5.49997 5.0572 5.72383 4.83334 5.99997 4.83334H7.49997V2C7.49997 1.72386 7.72383 1.5 7.99997 1.5ZM13.3333 1.5C13.6095 1.5 13.8333 1.72386 13.8333 2V8C13.8333 8.27614 13.6095 8.5 13.3333 8.5C13.0572 8.5 12.8333 8.27614 12.8333 8V2C12.8333 1.72386 13.0572 1.5 13.3333 1.5ZM7.99997 7.5C8.27611 7.5 8.49997 7.72386 8.49997 8V14C8.49997 14.2761 8.27611 14.5 7.99997 14.5C7.72383 14.5 7.49997 14.2761 7.49997 14V8C7.49997 7.72386 7.72383 7.5 7.99997 7.5ZM0.166626 9.33334C0.166626 9.0572 0.390484 8.83334 0.666626 8.83334H4.66663C4.94277 8.83334 5.16663 9.0572 5.16663 9.33334C5.16663 9.60949 4.94277 9.83334 4.66663 9.83334H3.16663V14C3.16663 14.2762 2.94277 14.5 2.66663 14.5C2.39048 14.5 2.16663 14.2762 2.16663 14V9.83334H0.666626C0.390484 9.83334 0.166626 9.60949 0.166626 9.33334ZM10.8333 10.6667C10.8333 10.3905 11.0572 10.1667 11.3333 10.1667H15.3333C15.6095 10.1667 15.8333 10.3905 15.8333 10.6667C15.8333 10.9428 15.6095 11.1667 15.3333 11.1667H13.8333V14C13.8333 14.2761 13.6095 14.5 13.3333 14.5C13.0572 14.5 12.8333 14.2761 12.8333 14V11.1667H11.3333C11.0572 11.1667 10.8333 10.9428 10.8333 10.6667Z" fill="#312826"/>
</svg>
