<svg width="20" height="20" viewBox="0 0 20 20" fill="none" xmlns="http://www.w3.org/2000/svg">
<path d="M18.99 6.56417C18.8775 6.44 17.8592 5.35167 16.8242 5.295C16.4067 5.2725 16.0183 5.37917 15.6708 5.55L16.3558 2.26834C16.3917 2.095 16.315 1.91834 16.1633 1.82667C16.0133 1.73667 15.8192 1.74917 15.6825 1.86167L12.9408 4.12417H7.05917L4.31751 1.86167C4.18001 1.74834 3.98668 1.73584 3.83668 1.82584C3.68501 1.9175 3.60834 2.095 3.64418 2.2675L4.32834 5.54417C3.98084 5.37334 3.59168 5.2675 3.17584 5.29417C2.14168 5.3525 1.12334 6.44 1.01001 6.56417C0.900842 6.68417 0.870842 6.85667 0.934175 7.00584C0.944175 7.02917 1.82334 9.04 4.44418 9.04C4.48834 9.04 4.53751 9.03417 4.58334 9.0325V14.1042C4.58334 14.96 5.05168 15.6958 5.41668 16.14V16.4267C5.41668 17.4225 6.22668 18.2325 7.22251 18.2325H12.7783C13.7742 18.2325 14.5842 17.4225 14.5842 16.4267V16.14C14.9492 15.6958 15.4175 14.96 15.4175 14.1042V9.03334C15.4625 9.03417 15.5117 9.04084 15.5567 9.04084C18.1775 9.04084 19.0575 7.02917 19.0667 7.00667C19.1283 6.85667 19.0992 6.68417 18.99 6.56417ZM14.9075 5.12917C14.5717 4.59834 14.1908 4.25167 14.1625 4.22667L14.145 4.21167L15.2975 3.26L14.9075 5.12917ZM1.83334 6.91834C2.17251 6.60167 2.75168 6.15334 3.22251 6.12667C3.76501 6.09834 4.29584 6.42 4.58334 6.7775V8.1775C2.92668 8.22417 2.11918 7.3575 1.83334 6.91834ZM5.09251 5.12917L4.70251 3.26L5.85501 4.21167L5.83751 4.22667C5.80918 4.25167 5.42834 4.5975 5.09251 5.12917ZM5.41668 8.77167C5.72834 8.81167 6.23668 8.92917 6.60501 9.29C6.92251 9.60167 7.08334 10.0483 7.08334 10.6192C7.08334 12.0075 6.04918 12.5758 5.41668 12.795V8.77167ZM13.75 16.4283C13.75 16.9642 13.3142 17.4008 12.7775 17.4008H12.6833V16.3775C12.6833 16.1475 12.4967 15.9608 12.2667 15.9608C12.0367 15.9608 11.85 16.1475 11.85 16.3775V17.4008H8.14917V16.3775C8.14917 16.1475 7.96251 15.9608 7.73251 15.9608C7.50251 15.9608 7.31584 16.1475 7.31584 16.3775V17.4008H7.22251C6.68668 17.4008 6.25001 16.965 6.25001 16.4283V15.6L7.39501 14.455H12.6058L13.75 15.6V16.4283ZM14.5833 14.1058C14.5833 14.4308 14.4758 14.7375 14.3358 15.0083L12.95 13.6225H7.04917L5.66501 15.0075C5.52501 14.735 5.41668 14.4283 5.41668 14.1058V13.6692C6.43918 13.4 7.91667 12.53 7.91667 10.62C7.91667 9.81334 7.66918 9.16334 7.18168 8.68917C6.59834 8.12084 5.83334 7.975 5.41668 7.935V6.70834C5.41668 5.92 6.02751 5.215 6.28001 4.9575H13.0442C12.4017 5.11 11.6492 5.4025 11.0525 5.98417C10.3925 6.6275 10.0575 7.48834 10.0575 8.54167C10.0575 11.545 12.9833 12.7142 14.53 12.9133C14.5475 12.915 14.5658 12.9167 14.5825 12.9167V14.1058H14.5833ZM14.5833 12.0792C14.1283 12.0092 10.8908 11.41 10.8908 8.54167C10.8908 7.72334 11.14 7.065 11.6308 6.58417C12.4833 5.75 13.8358 5.6375 14.2392 5.62667C14.4267 5.93584 14.5833 6.31167 14.5833 6.70834V12.0792ZM15.4167 8.1775V6.7675C15.7125 6.405 16.24 6.09584 16.7775 6.12667C17.2467 6.15334 17.825 6.60084 18.165 6.9175C17.8783 7.35417 17.0633 8.22 15.4167 8.1775Z" fill="#312826"/>
</svg>
