<svg width="20" height="20" viewBox="0 0 20 20" fill="none" xmlns="http://www.w3.org/2000/svg">
<path d="M15.4083 10.3633L15.9808 9.93833C16.1658 9.80167 16.2041 9.54 16.0675 9.35583C15.9308 9.17167 15.6683 9.13167 15.485 9.26917L14.915 9.69167C14.7458 9.66167 14.4783 9.62333 14.1483 9.60333C15.0833 8.71167 15.3433 7.40917 15.4091 6.915L15.9816 6.49C16.1666 6.35333 16.205 6.09167 16.0683 5.9075C15.9316 5.72333 15.6691 5.68333 15.4858 5.82083L14.915 6.24417C14.4058 6.155 12.985 5.98083 11.7791 6.515C11.965 6.12083 12.0941 5.68583 12.0941 5.21833C12.0941 3.74833 10.8633 2.56833 10.4175 2.1875V1.46083C10.4175 1.23083 10.2308 1.04417 10.0008 1.04417C9.77081 1.04417 9.58414 1.23083 9.58414 1.46083V2.1875C9.13831 2.56833 7.90748 3.74833 7.90748 5.21833C7.90748 5.68583 8.03664 6.12083 8.22248 6.515C7.01581 5.98167 5.59498 6.15583 5.08664 6.24417L4.51498 5.8225C4.33081 5.68583 4.06914 5.725 3.93248 5.90833C3.79498 6.09333 3.83414 6.35417 4.01831 6.49167L4.59081 6.91667C4.65664 7.41083 4.91664 8.71417 5.85164 9.60583C5.52164 9.62583 5.25331 9.66417 5.08414 9.69333L4.51331 9.27C4.32914 9.13333 4.06748 9.1725 3.93081 9.35667C3.79331 9.54167 3.83248 9.8025 4.01748 9.93917L4.58998 10.3642C4.65414 10.8467 4.90248 12.1042 5.78748 12.9933C5.48581 13.0142 5.24248 13.05 5.08414 13.0775L4.51331 12.6542C4.32914 12.5175 4.06748 12.5567 3.93081 12.7408C3.79331 12.9258 3.83248 13.1867 4.01748 13.3233L4.58998 13.7483C4.66414 14.3083 4.98498 15.92 6.26998 16.7783C7.02998 17.285 7.96331 17.415 8.71831 17.415C9.05248 17.415 9.34831 17.3892 9.58164 17.36V18.54C9.58164 18.77 9.76831 18.9567 9.99831 18.9567C10.2283 18.9567 10.415 18.77 10.415 18.54V17.3583C10.6483 17.3875 10.9433 17.4133 11.2783 17.4133C12.0333 17.4133 12.9675 17.2842 13.7266 16.7767C15.0116 15.9183 15.3316 14.3067 15.4066 13.7467L15.9791 13.3217C16.1641 13.185 16.2025 12.9233 16.0658 12.7392C15.9291 12.555 15.6666 12.515 15.4833 12.6525L14.9125 13.0758C14.7541 13.0483 14.51 13.0125 14.2091 12.9917C15.0966 12.1033 15.3441 10.8458 15.4083 10.3633ZM13.2658 12.6992C12.3758 13.2933 11.0975 13.2233 10.47 13.1408C10.5783 12.5717 10.8916 11.4925 11.7491 10.9208C12.6391 10.3267 13.9191 10.3975 14.5458 10.48C14.4391 11.0467 14.1283 12.1233 13.2658 12.6992ZM14.545 7.0325C14.4366 7.60167 14.1233 8.68083 13.2666 9.2525C12.375 9.8475 11.095 9.775 10.4691 9.69333C10.5758 9.12583 10.8866 8.04917 11.75 7.47417C12.6391 6.88 13.9175 6.95 14.545 7.0325ZM9.99998 2.93167C10.43 3.32917 11.26 4.22417 11.26 5.21917C11.26 6.21333 10.43 7.10917 9.99998 7.50583C9.56998 7.10833 8.73998 6.21333 8.73998 5.21917C8.73998 4.22417 9.56998 3.32917 9.99998 2.93167ZM5.45498 7.0325C6.08164 6.94917 7.35998 6.87917 8.25081 7.47417C9.10748 8.04667 9.42081 9.125 9.52998 9.69333C8.90248 9.77667 7.62414 9.8475 6.73414 9.2525C5.87664 8.68083 5.56414 7.60167 5.45498 7.0325ZM5.45498 10.48C6.08331 10.3967 7.36081 10.3275 8.25081 10.9208C9.10831 11.4933 9.42164 12.5725 9.52998 13.1417C8.90498 13.2242 7.62914 13.2967 6.73331 12.6992C5.87664 12.1267 5.56414 11.0483 5.45498 10.48ZM6.73414 16.0833C5.87748 15.5108 5.56414 14.4325 5.45581 13.8642C6.08331 13.7833 7.36164 13.7108 8.25164 14.305C9.10831 14.8775 9.42164 15.9558 9.53081 16.5242C8.90248 16.6075 7.62414 16.6783 6.73414 16.0833ZM13.2658 16.0833C12.3741 16.6783 11.0941 16.605 10.4683 16.5242C10.575 15.9567 10.8858 14.88 11.7491 14.305C12.6391 13.7092 13.9183 13.7817 14.5458 13.8642C14.4391 14.4317 14.1283 15.5083 13.2658 16.0833Z" fill="#312826"/>
</svg>
