<svg width="20" height="20" viewBox="0 0 20 20" fill="none" xmlns="http://www.w3.org/2000/svg">
<path d="M15.4141 6.19083C15.4133 6.16 15.4033 6.13167 15.3966 6.10167C15.3908 6.07833 15.3891 6.05417 15.3791 6.0325C15.37 6.0125 15.3541 5.99583 15.3416 5.97667C15.3241 5.95 15.3083 5.9225 15.285 5.90083C15.2825 5.89833 15.2808 5.89417 15.2783 5.89167L12.6116 3.50917C12.5883 3.48833 12.5616 3.47667 12.535 3.46167V2.61417C12.535 2.20667 12.2041 1.875 11.7966 1.875H8.18998C7.78248 1.875 7.45165 2.20583 7.45165 2.61417V3.4725C7.43081 3.485 7.40748 3.49167 7.38915 3.50833L4.72248 5.89083C4.71915 5.89417 4.71831 5.8975 4.71581 5.9C4.69248 5.9225 4.67665 5.95 4.65831 5.97667C4.64665 5.995 4.62998 6.01167 4.62081 6.03167C4.61165 6.05333 4.60915 6.07833 4.60331 6.10167C4.59581 6.13167 4.58665 6.16 4.58581 6.19083C4.58581 6.195 4.58331 6.19833 4.58331 6.2025V17.7083C4.58331 17.9383 4.76998 18.125 4.99998 18.125H9.33331H15C15.23 18.125 15.4166 17.9383 15.4166 17.7083V6.20167C15.4166 6.1975 15.4141 6.19417 15.4141 6.19083ZM13.9083 5.785H10.3975L12.31 4.35667L13.9083 5.785ZM8.91665 6.61833V7.94833H5.41665V6.61833H8.91665ZM5.41665 8.78167H8.91665V14.9558H5.41665V8.78167ZM8.28415 2.70833H11.7008V3.27667H8.28415V2.70833ZM7.94415 4.13C7.95081 4.12417 7.95331 4.11583 7.95915 4.11H11.2475L9.00415 5.78583H6.09165L7.94415 4.13ZM5.41665 15.7892H8.91665V17.2917H5.41665V15.7892ZM14.5833 17.2917H9.74998V6.61833H14.5833V17.2917Z" fill="#312826"/>
</svg>
