<svg width="20" height="20" viewBox="0 0 20 20" fill="none" xmlns="http://www.w3.org/2000/svg">
<path d="M13.6925 7.06584C14.0377 7.06584 14.3175 6.78602 14.3175 6.44084C14.3175 6.09566 14.0377 5.81584 13.6925 5.81584C13.3473 5.81584 13.0675 6.09566 13.0675 6.44084C13.0675 6.78602 13.3473 7.06584 13.6925 7.06584Z" fill="#312826"/>
<path d="M18.1542 6.50417C18.1134 6.45667 17.1367 5.33667 16.0975 5.08167C16.0617 5.07334 16.0267 5.07084 15.9917 5.06334C15.84 4.58417 15.5234 4.1775 15.1009 3.92C15.1467 3.88334 15.1959 3.85417 15.2392 3.81084C15.9684 3.08167 15.8634 1.85834 15.8592 1.80667C15.8409 1.60667 15.6825 1.44917 15.4825 1.43C15.4309 1.4275 14.2075 1.32084 13.4784 2.05C13.195 2.33334 13.04 2.69 12.9534 3.02417C12.77 2.84917 12.5525 2.6925 12.2909 2.59584C11.3234 2.23584 10.2567 2.84417 10.2117 2.87C10.0384 2.97084 9.96085 3.18 10.0267 3.36917C10.0442 3.41834 10.46 4.5725 11.4267 4.93084C11.4375 4.935 11.4484 4.93584 11.4592 4.93917C11.3717 5.16667 11.3192 5.41084 11.3192 5.66834C11.3175 5.805 11.2542 9.01834 8.75002 9.01834H5.42252L2.53585 6.90167C2.42169 6.81917 2.27585 6.7975 2.14419 6.8475C2.01335 6.89584 1.91502 7.0075 1.88335 7.14417C1.85919 7.24834 1.31002 9.71584 2.57252 11.3692C2.66252 11.4875 2.76335 11.6017 2.87835 11.715C2.63835 12.5792 2.63002 14.3633 3.44835 15.6992C3.93419 16.4942 4.90502 17.4375 6.78002 17.4817C7.53419 18.1608 8.83169 18.5758 10.2075 18.5758C10.4009 18.5758 10.5967 18.5675 10.7917 18.5508C12.185 18.43 13.2742 17.8867 13.8275 17.0467C15.1359 16.9467 16.0942 16.0442 16.0942 14.87V10.7533C16.29 10.7183 16.48 10.6592 16.6475 10.5508C17.0092 10.3167 17.2542 9.91667 17.3184 9.45417C17.3867 8.96917 17.24 8.48 16.9175 8.11084C16.7875 7.9625 16.6075 7.84084 16.415 7.73167C17.1867 7.57417 17.9259 7.20167 18.0317 7.14667C18.145 7.08834 18.2242 6.98084 18.2484 6.85584C18.2725 6.73 18.2375 6.60084 18.1542 6.50417ZM14.0675 2.64C14.3134 2.39417 14.71 2.29834 15.0225 2.2675C14.9917 2.58 14.8967 2.97584 14.65 3.2225C14.4034 3.46917 14.0075 3.56417 13.695 3.595C13.7259 3.2825 13.8209 2.88584 14.0675 2.64ZM10.9792 3.43917C11.275 3.33667 11.675 3.2575 12.0017 3.37834C12.2134 3.4575 12.3909 3.62167 12.5342 3.8C12.3142 3.89917 12.1142 4.03417 11.9434 4.20084C11.8659 4.19167 11.7892 4.17834 11.7159 4.15084C11.3892 4.03 11.1367 3.70917 10.9792 3.43917ZM15.2609 14.87C15.2609 15.7483 14.3967 16.2225 13.5842 16.2225C13.4284 16.2225 13.2867 16.3092 13.2142 16.4475C12.8484 17.1517 11.9392 17.6158 10.72 17.7208C9.24335 17.8458 7.70085 17.3858 7.13585 16.6458C6.30419 15.5567 6.92585 13.0033 7.32752 11.825C8.12919 11.82 10.6742 11.9825 12.3959 14.1442C12.5392 14.3242 12.7992 14.3533 12.9817 14.2108C13.1617 14.0675 13.1909 13.8058 13.0484 13.625C10.7084 10.6867 7.14419 10.9917 6.99169 11.0058C6.83419 11.0208 6.69752 11.1242 6.64169 11.2725C6.58419 11.4225 5.37835 14.65 6.15752 16.5867C5.27335 16.4308 4.60335 15.9883 4.16002 15.2642C3.37252 13.9775 3.53669 12.1742 3.73669 11.7842C3.82419 11.6125 3.78252 11.4025 3.63585 11.2775C3.47335 11.1392 3.34252 11.0033 3.23669 10.8633C2.56252 9.98084 2.54085 8.73667 2.60502 7.98417L5.04085 9.77167C5.11252 9.82417 5.19835 9.8525 5.28752 9.8525H8.75169C11.4167 9.8525 12.1425 7.12084 12.1542 5.67334C12.1542 4.9975 12.7042 4.4475 13.38 4.4475H14.0367C14.7125 4.4475 15.2625 4.9975 15.2625 5.67334V14.87H15.2609ZM16.4925 9.33917C16.4617 9.55917 16.35 9.75084 16.1942 9.8525C16.1642 9.87167 16.1275 9.875 16.0942 9.88917V8.50167C16.1717 8.55167 16.2417 8.60417 16.2892 8.65917C16.5125 8.915 16.5117 9.195 16.4925 9.33917ZM16.0942 6.94167V5.96334C16.4592 6.1075 16.835 6.38667 17.12 6.64334C16.8109 6.7675 16.4334 6.88917 16.0942 6.94167Z" fill="#312826"/>
</svg>
