<svg width="20" height="20" viewBox="0 0 20 20" fill="none" xmlns="http://www.w3.org/2000/svg">
<path d="M15.1683 9.87582C15.5135 9.87582 15.7933 9.596 15.7933 9.25082C15.7933 8.90565 15.5135 8.62582 15.1683 8.62582C14.8232 8.62582 14.5433 8.90565 14.5433 9.25082C14.5433 9.596 14.8232 9.87582 15.1683 9.87582Z" fill="#312826"/>
<path d="M19.6733 10.0233C19.5466 9.84833 16.9591 6.3475 13.355 5.22416C13.2 5.08333 11.08 3.20833 8.95665 3.20833C6.73831 3.20833 4.81498 7.49583 4.58331 8.03083C4.15581 8.43666 3.78665 8.825 3.49998 9.15083C3.47748 8.69416 3.37081 8.17083 3.04831 7.72916C2.31748 6.73166 0.837479 6.63 0.774979 6.62666C0.574979 6.61916 0.394146 6.74583 0.345812 6.94083C0.329979 7.00083 -0.0216877 8.44166 0.708312 9.44166C1.02581 9.87583 1.48248 10.1342 1.90498 10.295C1.48248 10.4558 1.02581 10.7142 0.708312 11.1483C-0.0216877 12.1475 0.329979 13.5883 0.344979 13.6492C0.391646 13.835 0.559146 13.9642 0.748312 13.9642C0.756646 13.9642 0.765812 13.9642 0.774146 13.9633C0.836646 13.96 2.31665 13.8583 3.04748 12.8592C3.36081 12.4308 3.46998 11.925 3.49665 11.4775C4.00498 12.0492 4.75498 12.8083 5.68331 13.5267C5.68415 13.5317 5.68248 13.5358 5.68331 13.5408C5.77831 14.01 6.31165 16.3692 7.52331 16.73C7.66498 16.7725 7.81165 16.7917 7.95915 16.7917C8.95831 16.7917 10.0225 15.9342 10.3566 15.6408C10.6075 15.6733 10.86 15.6975 11.1175 15.7017C11.1533 15.7017 11.1891 15.7025 11.225 15.7025C15.825 15.7025 19.5141 10.7283 19.6708 10.5142C19.7791 10.3683 19.7791 10.17 19.6733 10.0233ZM12.5291 9.35416L9.25165 6.04083C9.90415 5.825 10.5875 5.6975 11.2883 5.70666C12.0175 5.71916 12.7225 5.87333 13.3916 6.11333C13.0591 6.54666 12.6366 7.46916 12.5291 9.35416ZM8.34248 14.1808C8.04831 14.045 7.76248 13.8958 7.48748 13.7342L10.7066 10.6283C10.7866 10.5508 10.8325 10.445 10.8341 10.3333C10.8358 10.2217 10.7925 10.1142 10.7133 10.0358L7.54415 6.83166C7.82748 6.66416 8.12165 6.5125 8.42331 6.37333C8.43415 6.3875 8.43998 6.405 8.45248 6.41833L12.3241 10.3317L8.35748 14.1583C8.35081 14.165 8.34915 14.1742 8.34248 14.1808ZM8.21498 10.0033L6.09331 7.8425C6.32998 7.6525 6.57581 7.465 6.83581 7.285C6.84748 7.30083 6.85331 7.31833 6.86748 7.3325L9.82498 10.3217L6.79498 13.2442C6.78415 13.2542 6.77998 13.2683 6.77081 13.2792C6.49415 13.0883 6.23415 12.8892 5.98498 12.6883L8.20248 10.5975C8.28415 10.5208 8.33081 10.4142 8.33331 10.3025C8.33581 10.1908 8.29331 10.0833 8.21498 10.0033ZM8.95665 4.04249C9.83665 4.04249 10.7491 4.45583 11.4675 4.88666C11.4116 4.88416 11.3583 4.87416 11.3025 4.87333C9.38331 4.835 7.62831 5.67333 6.20998 6.68583C7.01248 5.33583 8.06831 4.04249 8.95665 4.04249ZM1.38165 8.95C1.06415 8.51583 1.05748 7.90416 1.09581 7.51583C1.47748 7.5975 2.05748 7.78833 2.37498 8.2225C2.69331 8.65666 2.69915 9.26833 2.66081 9.65666C2.27998 9.575 1.69915 9.38416 1.38165 8.95ZM2.37498 12.3658C2.37498 12.3667 2.37498 12.3667 2.37498 12.3658C2.05748 12.8 1.47665 12.9908 1.09581 13.0733C1.05748 12.685 1.06331 12.0733 1.38165 11.6392C1.69915 11.205 2.27998 11.0142 2.66165 10.9325C2.69915 11.32 2.69331 11.9317 2.37498 12.3658ZM3.61248 10.3192C3.91665 9.94083 4.56665 9.17833 5.45498 8.38083C5.45498 8.38083 5.45498 8.38166 5.45581 8.38166L7.32248 10.2825L5.34665 12.145C4.51081 11.3908 3.90248 10.6792 3.61248 10.3192ZM7.76165 15.9317C7.37665 15.8167 6.99831 15.04 6.74248 14.265C7.51081 14.7475 8.36165 15.1608 9.27915 15.4183C8.76998 15.7617 8.16248 16.0483 7.76165 15.9317ZM11.225 14.8683C11.1941 14.8683 11.1633 14.8683 11.1325 14.8675C10.46 14.8558 9.80748 14.7267 9.18415 14.5192L12.5325 11.2892C12.645 13.1183 13.055 14.025 13.3833 14.4592C12.6933 14.7108 11.97 14.8683 11.225 14.8683ZM14.1983 14.1108C14.1941 14.1083 14.1916 14.1042 14.1866 14.1017C14.1783 14.0958 13.3341 13.485 13.3341 10.2925C13.3341 7.17416 14.1391 6.51916 14.185 6.485C14.1958 6.47833 14.2025 6.4675 14.2125 6.46083C16.5025 7.56583 18.2483 9.57083 18.8083 10.2683C18.2425 10.9692 16.475 12.9967 14.1983 14.1108Z" fill="#312826"/>
</svg>
