<svg width="20" height="20" viewBox="0 0 20 20" fill="none" xmlns="http://www.w3.org/2000/svg">
<path d="M17.805 7.26501C17.7608 7.24001 16.7317 6.66667 15.8025 7.01834L16.0733 6.36751C16.44 6.21501 17.2433 5.80251 17.55 5.00751C17.94 3.99751 17.3317 2.83834 17.3058 2.78917C17.2108 2.61167 17.0033 2.52667 16.8125 2.58834C16.7608 2.60501 15.54 3.00167 15.1458 4.02001C14.8417 4.80751 15.1417 5.67667 15.3017 6.04917L14.4267 8.14917C14.1533 7.40584 13.465 6.92167 13.4308 6.89751C13.2625 6.78251 13.0342 6.80667 12.8925 6.95417C12.8592 6.98917 12.0767 7.82584 12.1883 8.80167C12.2983 9.77417 13.2467 10.4333 13.2867 10.4608C13.3342 10.4933 13.3892 10.4983 13.4425 10.5092L11.5925 14.9483L6.80002 4.93084H7.31835C7.54835 4.93084 7.73502 4.74417 7.73502 4.51417C7.73502 4.28417 7.54835 4.09751 7.31835 4.09751H2.40168C2.17168 4.09751 1.98502 4.28417 1.98502 4.51417C1.98502 4.74417 2.17168 4.93084 2.40168 4.93084H3.22085L9.08835 17.1942C9.15752 17.3392 9.30418 17.4308 9.46418 17.4308H11.185C11.3533 17.4308 11.505 17.3292 11.5692 17.1742L13.3467 12.9092C13.58 13.0125 13.9758 13.1533 14.4117 13.1533C14.6175 13.1533 14.8308 13.1217 15.0392 13.04C15.9042 12.7 16.2592 11.6792 16.2967 11.5642C16.3575 11.3775 16.28 11.1733 16.11 11.075C16.0683 11.0508 15.0933 10.4958 14.2108 10.835L14.885 9.21834C15.1342 9.32417 15.5425 9.46167 15.9875 9.46167C16.2108 9.46167 16.4433 9.42667 16.6692 9.33584C17.6017 8.96001 17.9792 7.80251 17.995 7.75334C18.055 7.56584 17.9758 7.36167 17.805 7.26501ZM13.0175 8.70917C12.9833 8.40667 13.1183 8.08834 13.2617 7.85084C13.4592 8.05667 13.6675 8.34667 13.7033 8.65334C13.7375 8.95584 13.6025 9.27417 13.4592 9.51167C13.2608 9.30584 13.0525 9.01584 13.0175 8.70917ZM15.3483 11.6475C15.2133 11.8867 15.0042 12.1583 14.735 12.2642C14.4717 12.3683 14.1475 12.3125 13.8942 12.2292C14.0292 11.9917 14.2392 11.7183 14.5075 11.6125C14.7717 11.5092 15.0958 11.565 15.3483 11.6475ZM15.9242 4.32084C16.0708 3.94167 16.4383 3.68501 16.7167 3.53667C16.8225 3.85084 16.9233 4.31834 16.7733 4.70667C16.6267 5.08584 16.2592 5.34334 15.98 5.49167C15.8692 5.15751 15.7808 4.69167 15.9242 4.32084ZM9.72668 16.5975L4.14418 4.93084H5.87585L11.1633 15.9825L10.9067 16.5975H9.72668ZM16.3592 8.56251C16.3583 8.56251 16.3583 8.56251 16.3592 8.56251C16.0542 8.68667 15.6742 8.61501 15.3908 8.52084C15.5367 8.24917 15.7725 7.92501 16.0825 7.80001C16.3892 7.67667 16.7683 7.74751 17.0508 7.84167C16.905 8.11334 16.6692 8.43751 16.3592 8.56251Z" fill="#312826"/>
</svg>
