<svg width="20" height="20" viewBox="0 0 20 20" fill="none" xmlns="http://www.w3.org/2000/svg">
<path d="M17.7925 5.31917C17.7958 4.49834 17.4783 3.72417 16.9 3.14167C16.3225 2.55917 15.5508 2.23667 14.73 2.23334C14.7258 2.23334 14.7225 2.23334 14.7183 2.23334C13.5775 2.23334 12.5367 2.87584 12.01 3.855C11.5517 3.5925 11.03 3.45084 10.4942 3.44917C9.69999 3.44667 8.89916 3.76334 8.31666 4.34167C7.73833 4.91584 7.41583 5.68 7.40833 6.49417C6.63499 6.5225 5.91083 6.83584 5.35833 7.38417C4.77583 7.9625 4.45333 8.73417 4.44999 9.55417C4.44749 10.0383 4.47833 14.0533 4.48499 14.8825L2.33333 17.035C2.16583 17.2025 2.16583 17.4733 2.33333 17.6417C2.41666 17.725 2.52583 17.7667 2.63583 17.7667C2.74583 17.7667 2.85583 17.725 2.93833 17.6417L5.09333 15.4867C5.84333 15.4775 9.25499 15.4367 9.97333 15.4367C9.99583 15.4367 10.015 15.4367 10.0333 15.4367C11.7142 15.4367 13.0867 14.0767 13.1058 12.3942C14.79 12.39 16.1642 11.02 16.1708 9.33C16.1717 8.91667 16.0908 8.51167 15.9333 8.135C17.0475 7.66167 17.7883 6.5725 17.7925 5.31917ZM15.1883 7.43334C15.0442 7.465 14.925 7.56584 14.8692 7.70334C14.8133 7.84084 14.8283 7.99667 14.9108 8.12C15.1475 8.48 15.2733 8.8975 15.2717 9.3275C15.2667 10.525 14.2925 11.4958 13.0975 11.4958C12.9858 11.4933 12.8308 11.4842 12.7033 11.4592C12.5542 11.43 12.4083 11.4758 12.3033 11.5783C12.1983 11.6808 12.1492 11.8292 12.1742 11.975C12.1958 12.1042 12.2075 12.2367 12.2075 12.3708C12.2025 13.5683 11.2283 14.5392 10.0342 14.5392C10.0317 14.5392 10.0283 14.5392 10.0258 14.5392C9.58749 14.545 7.36166 14.5642 6.00249 14.5783L7.88083 12.7L10.4875 13.0283C10.5058 13.0308 10.5258 13.0317 10.5442 13.0317C10.7675 13.0317 10.96 12.8658 10.9883 12.6383C11.02 12.3925 10.845 12.1675 10.5992 12.1367L8.68416 11.8958L11.0433 9.53667L13.65 9.865C13.6683 9.8675 13.6883 9.86834 13.7067 9.86834C13.93 9.86834 14.1225 9.7025 14.1508 9.475C14.1825 9.22917 14.0075 9.00417 13.7617 8.97334L11.8467 8.7325L14.7733 5.80584C14.9408 5.63834 14.9408 5.3675 14.7733 5.19917C14.6075 5.03167 14.3342 5.0325 14.1675 5.19917L11.255 8.11167L11.0175 6.23084C10.9867 5.985 10.7567 5.81167 10.5158 5.84167C10.27 5.8725 10.095 6.0975 10.1267 6.34334L10.4508 8.915L8.07833 11.2875L7.84083 9.40584C7.81249 9.16 7.58333 8.98584 7.34166 9.01667C7.09583 9.0475 6.92083 9.2725 6.95249 9.51834L7.27666 12.0908L5.37583 13.9917C5.36416 12.5117 5.34583 9.94 5.34833 9.55917C5.34999 8.9775 5.57833 8.43167 5.99083 8.0225C6.40083 7.615 6.94583 7.39084 7.52416 7.39084C7.61083 7.3825 7.72916 7.39584 7.82666 7.41084C7.97083 7.435 8.11499 7.38417 8.21499 7.28C8.31583 7.17584 8.36083 7.03 8.33583 6.8875C8.31416 6.76834 8.30583 6.6425 8.30666 6.51584C8.30833 5.93417 8.53666 5.38834 8.94916 4.97917C9.35916 4.57167 9.90416 4.3475 10.4825 4.3475C10.485 4.3475 10.4883 4.3475 10.4908 4.3475C11.015 4.34917 11.5192 4.53917 11.9125 4.88334C12.0275 4.98417 12.1833 5.01834 12.3325 4.97667C12.4792 4.93417 12.5942 4.82 12.6375 4.67417C12.9117 3.7625 13.77 3.13167 14.7267 3.1325C15.3075 3.13417 15.8542 3.3625 16.2633 3.775C16.6725 4.1875 16.8975 4.735 16.895 5.31667C16.8908 6.3425 16.1892 7.21334 15.1883 7.43334Z" fill="#312826"/>
</svg>
